<svg width="28" height="28" viewBox="0 0 28 28" fill="none" xmlns="http://www.w3.org/2000/svg">
<path fill-rule="evenodd" clip-rule="evenodd" d="M13.8398 2.33306C13.8925 2.33309 13.946 2.33312 14.0003 2.33312C14.0546 2.33312 14.1081 2.33309 14.1608 2.33306C15.0888 2.33256 15.7779 2.33219 16.3748 2.49213C17.9852 2.92365 19.2431 4.18154 19.6747 5.79197C19.7708 6.15068 19.809 6.54267 19.8241 6.99979L21.9786 6.99979C22.5936 6.99977 23.1242 6.99975 23.5612 7.03545C24.0224 7.07314 24.4812 7.15634 24.9226 7.38126C25.5812 7.71682 26.1166 8.25225 26.4522 8.91082C26.6771 9.35226 26.7603 9.81102 26.798 10.2723C26.8337 10.7092 26.8337 11.2398 26.8337 11.8548V20.8114C26.8337 21.4264 26.8337 21.957 26.798 22.394C26.7603 22.8552 26.6771 23.314 26.4522 23.7554C26.1166 24.414 25.5812 24.9494 24.9226 25.285C24.4812 25.5099 24.0224 25.5931 23.5612 25.6308C23.1242 25.6665 22.5937 25.6665 21.9787 25.6665H6.022C5.407 25.6665 4.87646 25.6665 4.43946 25.6308C3.97823 25.5931 3.51947 25.5099 3.07803 25.285C2.41946 24.9494 1.88403 24.414 1.54847 23.7554C1.32355 23.314 1.24034 22.8552 1.20266 22.394C1.16695 21.957 1.16697 21.4264 1.16699 20.8114V11.8548C1.16697 11.2398 1.16695 10.7093 1.20266 10.2723C1.24034 9.81102 1.32355 9.35226 1.54847 8.91082C1.88403 8.25225 2.41946 7.71682 3.07803 7.38126C3.51947 7.15634 3.97823 7.07314 4.43946 7.03545C4.87646 6.99975 5.40702 6.99977 6.02203 6.99979L8.17658 6.99979C8.19167 6.54267 8.22989 6.15068 8.32601 5.79197C8.75752 4.18154 10.0154 2.92365 11.6258 2.49213C12.2228 2.33219 12.9119 2.33256 13.8398 2.33306ZM6.06699 9.33312C5.39435 9.33312 4.96003 9.33403 4.62947 9.36104C4.31253 9.38693 4.19502 9.43089 4.13734 9.46028C3.91782 9.57213 3.73934 9.75061 3.62749 9.97013C3.5981 10.0278 3.55414 10.1453 3.52824 10.4623C3.50124 10.7928 3.50033 11.2271 3.50033 11.8998V20.7665C3.50033 21.4391 3.50124 21.8734 3.52824 22.204C3.55414 22.5209 3.5981 22.6384 3.62749 22.6961C3.73934 22.9156 3.91782 23.0941 4.13734 23.206C4.19502 23.2354 4.31253 23.2793 4.62947 23.3052C4.96003 23.3322 5.39435 23.3331 6.067 23.3331H21.9337C22.6063 23.3331 23.0406 23.3322 23.3712 23.3052C23.6881 23.2793 23.8056 23.2354 23.8633 23.206C24.0828 23.0941 24.2613 22.9156 24.3732 22.6961C24.4026 22.6384 24.4465 22.5209 24.4724 22.204C24.4994 21.8734 24.5003 21.4391 24.5003 20.7665V11.8998C24.5003 11.2271 24.4994 10.7928 24.4724 10.4623C24.4465 10.1453 24.4026 10.0278 24.3732 9.97013C24.2613 9.75061 24.0828 9.57213 23.8633 9.46028C23.8056 9.43089 23.6881 9.38693 23.3712 9.36104C23.0406 9.33403 22.6063 9.33312 21.9337 9.33312H6.06699ZM17.4888 6.99979H10.5118C10.5225 6.69929 10.5427 6.53446 10.5798 6.39588C10.7956 5.59066 11.4245 4.96172 12.2298 4.74596C12.4891 4.67647 12.8403 4.66645 14.0003 4.66645C15.1604 4.66645 15.5116 4.67647 15.7709 4.74596C16.5761 4.96172 17.2051 5.59066 17.4208 6.39588C17.458 6.53446 17.4781 6.69929 17.4888 6.99979Z" fill="#FF725E"/>
</svg>
