<svg width="28" height="28" viewBox="0 0 28 28" fill="none" xmlns="http://www.w3.org/2000/svg">
<path fill-rule="evenodd" clip-rule="evenodd" d="M11.151 1.16651C11.16 1.16651 11.1691 1.16651 11.1783 1.16651L16.8497 1.16651C16.9782 1.16648 17.0901 1.16645 17.1968 1.17291C18.5465 1.25465 19.7283 2.10648 20.2326 3.36102C20.2725 3.46024 20.3079 3.56637 20.3485 3.68837L20.3571 3.71425C20.4113 3.87661 20.423 3.9102 20.433 3.93501C20.6011 4.35319 20.995 4.63713 21.4449 4.66438C21.4713 4.66598 21.5109 4.66651 21.6938 4.66651C21.7159 4.66651 21.7376 4.66651 21.759 4.6665C22.1263 4.66643 22.3962 4.66637 22.6271 4.68925C24.8406 4.90856 26.5916 6.6596 26.8109 8.87306C26.8338 9.1039 26.8338 9.36296 26.8337 9.71275C26.8337 9.73263 26.8337 9.7528 26.8337 9.77327V18.9481C26.8337 19.8872 26.8337 20.6623 26.7821 21.2936C26.7285 21.9494 26.6135 22.5522 26.325 23.1185C25.8776 23.9966 25.1637 24.7105 24.2856 25.1579C23.7194 25.4464 23.1166 25.5614 22.4608 25.615C21.8294 25.6665 21.0543 25.6665 20.1152 25.6665H7.88546C6.94634 25.6665 6.17127 25.6665 5.53988 25.615C4.8841 25.5614 4.28128 25.4464 3.71505 25.1579C2.83696 24.7105 2.12305 23.9966 1.67564 23.1185C1.38714 22.5522 1.27215 21.9494 1.21857 21.2936C1.16698 20.6623 1.16699 19.8872 1.16701 18.948L1.16701 9.77327C1.16701 9.7528 1.167 9.73263 1.167 9.71275C1.16693 9.36296 1.16688 9.10391 1.18975 8.87306C1.40905 6.6596 3.16009 4.90856 5.37356 4.68925C5.60446 4.66637 5.87436 4.66643 6.24169 4.6665C6.26308 4.66651 6.2848 4.66651 6.30686 4.66651C6.4898 4.66651 6.52939 4.66598 6.55576 4.66438C7.00564 4.63713 7.39959 4.35319 7.56771 3.93501C7.57768 3.9102 7.58942 3.87662 7.64354 3.71425C7.64645 3.70552 7.64933 3.69687 7.65219 3.6883C7.69281 3.56634 7.72815 3.46022 7.76804 3.36102C8.27237 2.10648 9.45422 1.25465 10.8039 1.17291C10.9106 1.16645 11.0224 1.16648 11.151 1.16651ZM11.1783 3.49985C11.0072 3.49985 10.9716 3.50036 10.9449 3.50198C10.495 3.52923 10.1011 3.81317 9.93298 4.23135C9.923 4.25616 9.91126 4.28974 9.85714 4.45211C9.85423 4.46084 9.85135 4.46949 9.84849 4.47806C9.80787 4.60002 9.77253 4.70614 9.73265 4.80534C9.22831 6.05988 8.04646 6.91171 6.69682 6.99344C6.59001 6.99991 6.47292 6.99989 6.33678 6.99985C6.32691 6.99985 6.31693 6.99985 6.30686 6.99985C5.84627 6.99985 5.70351 7.00132 5.60362 7.01122C4.49688 7.12087 3.62136 7.99639 3.51171 9.10312C3.50177 9.20341 3.50034 9.33664 3.50034 9.77327V18.8998C3.50034 19.8992 3.50125 20.5785 3.54415 21.1036C3.58594 21.6151 3.66169 21.8767 3.75466 22.0592C3.97836 22.4982 4.33532 22.8552 4.77436 23.0789C4.95683 23.1718 5.2184 23.2476 5.72989 23.2894C6.25499 23.3323 6.93433 23.3332 7.93367 23.3332H20.067C21.0664 23.3332 21.7457 23.3323 22.2708 23.2894C22.7823 23.2476 23.0439 23.1718 23.2263 23.0789C23.6654 22.8552 24.0223 22.4982 24.246 22.0592C24.339 21.8767 24.4147 21.6151 24.4565 21.1036C24.4994 20.5785 24.5003 19.8992 24.5003 18.8998V9.77327C24.5003 9.33665 24.4989 9.20341 24.489 9.10312C24.3793 7.99639 23.5038 7.12087 22.3971 7.01122C22.2972 7.00132 22.1544 6.99985 21.6938 6.99985L21.6639 6.99985C21.5278 6.99989 21.4107 6.99991 21.3039 6.99344C19.9542 6.91171 18.7724 6.05988 18.268 4.80534C18.2281 4.70612 18.1928 4.59999 18.1522 4.47799L18.1435 4.45211C18.0894 4.28975 18.0777 4.25616 18.0677 4.23135C17.8996 3.81317 17.5056 3.52923 17.0558 3.50198C17.0291 3.50036 16.9935 3.49985 16.8223 3.49985H11.1783ZM14.0003 11.0832C12.0673 11.0832 10.5003 12.6502 10.5003 14.5832C10.5003 16.5162 12.0673 18.0832 14.0003 18.0832C15.9333 18.0832 17.5003 16.5162 17.5003 14.5832C17.5003 12.6502 15.9333 11.0832 14.0003 11.0832ZM8.16701 14.5832C8.16701 11.3615 10.7787 8.74985 14.0003 8.74985C17.222 8.74985 19.8337 11.3615 19.8337 14.5832C19.8337 17.8048 17.222 20.4165 14.0003 20.4165C10.7787 20.4165 8.16701 17.8048 8.16701 14.5832Z" fill="#FF725E"/>
</svg>
