<svg width="28" height="28" viewBox="0 0 28 28" fill="none" xmlns="http://www.w3.org/2000/svg">
<path fill-rule="evenodd" clip-rule="evenodd" d="M10.2185 1.1665H17.7815C18.7206 1.16649 19.4957 1.16648 20.1271 1.21806C20.7829 1.27164 21.3857 1.38664 21.952 1.67514C22.83 2.12255 23.544 2.83646 23.9914 3.71455C24.2799 4.28077 24.3949 4.88359 24.4484 5.53937C24.5 6.17076 24.5 6.94584 24.5 7.88496V12.2498C24.5 12.8942 23.9777 13.4165 23.3333 13.4165C22.689 13.4165 22.1667 12.8942 22.1667 12.2498V7.93317C22.1667 6.93383 22.1658 6.25449 22.1229 5.72938C22.0811 5.2179 22.0053 4.95633 21.9123 4.77386C21.6886 4.33482 21.3317 3.97786 20.8926 3.75416C20.7102 3.66119 20.4486 3.58544 19.9371 3.54365C19.412 3.50075 18.7327 3.49984 17.7333 3.49984H10.2667C9.26732 3.49984 8.58798 3.50075 8.06288 3.54365C7.55139 3.58544 7.28982 3.66119 7.10736 3.75416C6.66831 3.97786 6.31136 4.33482 6.08765 4.77386C5.99468 4.95633 5.91893 5.2179 5.87714 5.72938C5.83424 6.25449 5.83333 6.93383 5.83333 7.93317V20.0665C5.83333 21.0658 5.83424 21.7452 5.87714 22.2703C5.91893 22.7818 5.99468 23.0434 6.08765 23.2258C6.31136 23.6649 6.66831 24.0218 7.10736 24.2455C7.28982 24.3385 7.55139 24.4142 8.06288 24.456C8.58798 24.4989 9.26732 24.4998 10.2667 24.4998H13.4167C14.061 24.4998 14.5833 25.0222 14.5833 25.6665C14.5833 26.3108 14.061 26.8332 13.4167 26.8332H10.2185C9.27934 26.8332 8.50426 26.8332 7.87287 26.7816C7.21709 26.728 6.61427 26.613 6.04804 26.3245C5.16996 25.8771 4.45605 25.1632 4.00864 24.2851C3.72013 23.7189 3.60514 23.1161 3.55156 22.4603C3.49997 21.8289 3.49999 21.0538 3.5 20.1147V7.88499C3.49999 6.94586 3.49997 6.17077 3.55156 5.53937C3.60514 4.88359 3.72013 4.28077 4.00864 3.71455C4.45605 2.83646 5.16996 2.12255 6.04805 1.67514C6.61427 1.38664 7.21709 1.27164 7.87287 1.21806C8.50427 1.16648 9.27935 1.16649 10.2185 1.1665ZM21 18.0832C19.3892 18.0832 18.0833 19.389 18.0833 20.9998C18.0833 22.6107 19.3892 23.9165 21 23.9165C22.6108 23.9165 23.9167 22.6107 23.9167 20.9998C23.9167 19.389 22.6108 18.0832 21 18.0832ZM15.75 20.9998C15.75 18.1003 18.1005 15.7498 21 15.7498C23.8995 15.7498 26.25 18.1003 26.25 20.9998C26.25 22.0271 25.9549 22.9855 25.4449 23.7949L26.4916 24.8415C26.9472 25.2972 26.9472 26.0359 26.4916 26.4915C26.036 26.9471 25.2973 26.9471 24.8417 26.4915L23.795 25.4448C22.9857 25.9548 22.0273 26.2498 21 26.2498C18.1005 26.2498 15.75 23.8993 15.75 20.9998Z" fill="#FF725E"/>
</svg>
