<svg width="36" height="36" viewBox="0 0 36 36" fill="none" xmlns="http://www.w3.org/2000/svg">
<path fill-rule="evenodd" clip-rule="evenodd" d="M13.1381 1.5H22.8619C24.0694 1.49998 25.0659 1.49997 25.8777 1.56629C26.7209 1.63518 27.4959 1.78303 28.2239 2.15396C29.3529 2.7292 30.2708 3.64709 30.846 4.77606C31.217 5.50406 31.3648 6.27912 31.4337 7.12226C31.5 7.93405 31.5 8.93058 31.5 10.138V18.75C31.5 19.5784 30.8284 20.25 30 20.25C29.1716 20.25 28.5 19.5784 28.5 18.75V10.2C28.5 8.91513 28.4988 8.04169 28.4437 7.36656C28.3899 6.70894 28.2926 6.37263 28.173 6.13803C27.8854 5.57354 27.4265 5.1146 26.862 4.82698C26.6274 4.70745 26.2911 4.61006 25.6334 4.55633C24.9583 4.50117 24.0849 4.5 22.8 4.5H13.2C11.9151 4.5 11.0417 4.50117 10.3666 4.55633C9.70893 4.61006 9.37263 4.70745 9.13803 4.82698C8.57354 5.1146 8.1146 5.57354 7.82698 6.13803C7.70745 6.37263 7.61006 6.70893 7.55633 7.36656C7.50117 8.04169 7.5 8.91513 7.5 10.2V25.8C7.5 27.0849 7.50117 27.9583 7.55633 28.6334C7.61006 29.2911 7.70745 29.6274 7.82698 29.862C8.1146 30.4265 8.57354 30.8854 9.13803 31.173C9.37263 31.2926 9.70894 31.3899 10.3666 31.4437C11.0417 31.4988 11.9151 31.5 13.2 31.5H18C18.8284 31.5 19.5 32.1716 19.5 33C19.5 33.8284 18.8284 34.5 18 34.5H13.138C11.9306 34.5 10.934 34.5 10.1223 34.4337C9.27912 34.3648 8.50406 34.217 7.77606 33.846C6.64709 33.2708 5.7292 32.3529 5.15396 31.2239C4.78303 30.4959 4.63518 29.7209 4.56629 28.8777C4.49997 28.0659 4.49998 27.0694 4.5 25.8619V10.1381C4.49998 8.9306 4.49997 7.93406 4.56629 7.12226C4.63518 6.27912 4.78303 5.50406 5.15396 4.77606C5.7292 3.64709 6.64709 2.7292 7.77606 2.15396C8.50406 1.78303 9.27912 1.63518 10.1223 1.56629C10.9341 1.49997 11.9306 1.49998 13.1381 1.5ZM10.5 10.5C10.5 9.67157 11.1716 9 12 9H24C24.8284 9 25.5 9.67157 25.5 10.5C25.5 11.3284 24.8284 12 24 12H12C11.1716 12 10.5 11.3284 10.5 10.5ZM10.5 16.5C10.5 15.6716 11.1716 15 12 15H21C21.8284 15 22.5 15.6716 22.5 16.5C22.5 17.3284 21.8284 18 21 18H12C11.1716 18 10.5 17.3284 10.5 16.5ZM10.5 22.5C10.5 21.6716 11.1716 21 12 21H15C15.8284 21 16.5 21.6716 16.5 22.5C16.5 23.3284 15.8284 24 15 24H12C11.1716 24 10.5 23.3284 10.5 22.5ZM32.5607 23.6893C33.1464 24.2751 33.1464 25.2249 32.5607 25.8107L25.8107 32.5607C25.2249 33.1464 24.2751 33.1464 23.6893 32.5607L20.6893 29.5607C20.1036 28.9749 20.1036 28.0251 20.6893 27.4393C21.2751 26.8536 22.2249 26.8536 22.8107 27.4393L24.75 29.3787L30.4393 23.6893C31.0251 23.1036 31.9749 23.1036 32.5607 23.6893Z" fill="#FF725E"/>
</svg>
