<svg width="36" height="36" viewBox="0 0 36 36" fill="none" xmlns="http://www.w3.org/2000/svg">
<path fill-rule="evenodd" clip-rule="evenodd" d="M20.0976 1.62413C20.7084 1.88928 21.0713 2.52539 20.9887 3.18614L19.6995 13.5001L28.9919 13.5001C29.3534 13.5 29.7196 13.4999 30.0187 13.527C30.3016 13.5526 30.8434 13.6204 31.3132 14.0001C31.851 14.4347 32.1592 15.0925 32.1487 15.784C32.1396 16.388 31.8449 16.8476 31.6834 17.0813C31.5127 17.3284 31.2783 17.6096 31.0469 17.8873L17.6526 33.9604C17.2263 34.4719 16.5138 34.6412 15.903 34.376C15.2922 34.1109 14.9293 33.4748 15.0119 32.814L16.3011 22.5001L7.00862 22.5001C6.64713 22.5002 6.28099 22.5002 5.98185 22.4731C5.69894 22.4475 5.1572 22.3798 4.68737 22.0001C4.14951 21.5655 3.84139 20.9076 3.85182 20.2162C3.86093 19.6122 4.15569 19.1526 4.31713 18.9189C4.48783 18.6717 4.7223 18.3905 4.95378 18.1128C4.96524 18.0991 4.97669 18.0853 4.98813 18.0716L18.3479 2.03981C18.7742 1.52826 19.4867 1.35898 20.0976 1.62413ZM7.70284 19.5001H18.0003C18.4305 19.5001 18.8401 19.6848 19.1248 20.0074C19.4095 20.3299 19.5421 20.7592 19.4887 21.1861L18.6233 28.1094L28.2977 16.5001H18.0003C17.57 16.5001 17.1605 16.3153 16.8758 15.9928C16.591 15.6702 16.4585 15.241 16.5119 14.814L17.3773 7.89077L7.70284 19.5001Z" fill="#FF725E"/>
</svg>
