<svg width="36" height="33" viewBox="0 0 36 33" fill="none" xmlns="http://www.w3.org/2000/svg">
<path d="M35.8679 31.3082L18.5853 0.814508C18.5122 0.686687 18.4075 0.580658 18.2818 0.506979C18.1561 0.433301 18.0137 0.394531 17.8688 0.394531C17.7239 0.394531 17.5815 0.433301 17.4558 0.506979C17.3301 0.580658 17.2255 0.686687 17.1523 0.814508L0.112443 31.2202C0.0392749 31.3481 0.000480272 31.4934 4.42968e-06 31.6416C-0.000471413 31.7897 0.0373975 31.9353 0.109743 32.0636C0.182088 32.192 0.286358 32.2985 0.411978 32.3724C0.537597 32.4463 0.680096 32.485 0.82505 32.4845L35.1475 32.6045C35.2978 32.6101 35.4469 32.5735 35.5783 32.4987C35.7097 32.4238 35.8184 32.3135 35.8927 32.1798C35.967 32.0461 36.004 31.8942 35.9996 31.7405C35.9953 31.5868 35.9497 31.4373 35.8679 31.3082ZM28.2955 28.0036L7.70834 27.9396C7.56578 27.9458 7.42426 27.9121 7.29909 27.8421C7.17392 27.7721 7.06984 27.6685 6.9981 27.5425C6.92635 27.4165 6.88968 27.2728 6.89202 27.1271C6.89436 26.9813 6.93563 26.8389 7.01139 26.7154L17.2384 8.49594C17.3055 8.36891 17.405 8.2628 17.5263 8.18885C17.6476 8.11489 17.7863 8.07584 17.9275 8.07584C18.0688 8.07584 18.2074 8.11489 18.3288 8.18885C18.4501 8.2628 18.5496 8.36891 18.6167 8.49594L28.9846 26.7874C29.05 26.9094 29.0831 27.0467 29.0806 27.1858C29.0782 27.3249 29.0403 27.4608 28.9708 27.5804C28.9012 27.6999 28.8023 27.7989 28.6839 27.8675C28.5655 27.9361 28.4316 27.972 28.2955 27.9716V28.0036Z" fill="#111111"/>
</svg>
