<svg width="28" height="28" viewBox="0 0 28 28" fill="none" xmlns="http://www.w3.org/2000/svg">
<path fill-rule="evenodd" clip-rule="evenodd" d="M24.4523 3.54525C22.507 3.70312 20.6121 4.27054 18.894 5.21548C16.8222 6.35502 15.0763 8.00567 13.8224 10.0104L13.8159 10.0209C13.063 11.1969 12.4121 12.4347 11.8704 13.7207L14.2822 16.1325C15.5838 15.5921 16.8375 14.942 18.0298 14.1891C22.9592 10.8779 24.214 6.54833 24.4523 3.54525ZM17.8982 16.9763C17.013 17.465 16.101 17.9042 15.1666 18.2917V21.823C15.2787 21.7864 15.394 21.7469 15.5111 21.7044C16.5175 21.3394 17.3566 20.8595 17.6965 20.3521C17.8634 20.1013 17.9872 19.714 18.0365 19.1834C18.085 18.6622 18.0542 18.084 17.982 17.5238C17.9576 17.3345 17.929 17.1508 17.8982 16.9763ZM14 23.3335L14.2083 24.4814C13.868 24.5431 13.5178 24.4507 13.2523 24.2291C12.9868 24.0074 12.8333 23.6793 12.8333 23.3335V17.9834L10.0167 15.1668H4.66662C4.32074 15.1668 3.99268 15.0133 3.77102 14.7478C3.54936 14.4823 3.45694 14.1321 3.51871 13.7918L4.66662 14.0001C3.51871 13.7918 3.51867 13.792 3.51871 13.7918L3.51916 13.7893L3.51986 13.7855L3.52199 13.7741L3.52922 13.7364C3.53539 13.7049 3.54425 13.6607 3.55594 13.6053C3.57928 13.4946 3.61399 13.3386 3.66096 13.1492C3.75447 12.7722 3.89875 12.2541 4.10217 11.6933C4.4807 10.6498 5.1672 9.15586 6.35126 8.36376L6.3528 8.36273C7.04696 7.89996 7.86105 7.70899 8.60079 7.64024C9.35058 7.57055 10.1126 7.61855 10.7745 7.70386C11.3877 7.78289 11.942 7.89755 12.3607 7.99774C13.7734 6.00405 15.6215 4.3524 17.7696 3.17098C20.1902 1.83961 22.9113 1.14968 25.6739 1.16682C26.3154 1.17079 26.8333 1.69195 26.8333 2.33346C26.8333 5.61214 25.9135 11.3258 20.0056 15.6528C20.105 16.07 20.218 16.6189 20.2962 17.2256C20.3815 17.8875 20.4295 18.6495 20.3598 19.3993C20.2911 20.139 20.1001 20.9531 19.6373 21.6473L19.6363 21.6488C18.8442 22.8329 17.3503 23.5194 16.3067 23.8979C15.746 24.1013 15.2279 24.2456 14.8509 24.3391C14.6615 24.3861 14.5055 24.4208 14.3948 24.4441C14.3394 24.4558 14.2952 24.4647 14.2636 24.4709L14.226 24.4781L14.2146 24.4802L14.2108 24.4809L14.2083 24.4814C14.2081 24.4814 14.2083 24.4814 14 23.3335ZM11.0452 10.1057C10.5499 10.9889 10.1048 11.8996 9.71227 12.8335H6.17707C6.21369 12.7213 6.25319 12.6061 6.29566 12.489C6.66066 11.4827 7.14049 10.6437 7.64777 10.3037C7.89863 10.1367 8.28599 10.0129 8.81673 9.96356C9.33787 9.91512 9.9161 9.94587 10.4762 10.0181C10.6733 10.0435 10.8643 10.0735 11.0452 10.1057ZM4.49885 18.3574C5.19798 17.7685 6.08993 17.4585 7.00362 17.4867C7.91762 17.515 8.78898 17.8798 9.45047 18.5112L9.46464 18.5249C10.8511 19.8939 10.8333 22.0911 9.64214 23.5019C9.12569 24.1161 8.4144 24.5672 7.73038 24.9013C7.0325 25.2422 6.27937 25.5012 5.60288 25.6947C4.92268 25.8893 4.29532 26.0245 3.83899 26.1112C3.61002 26.1546 3.42209 26.1863 3.28964 26.2073C3.22337 26.2178 3.17085 26.2256 3.13388 26.231L3.09026 26.2372L3.07758 26.239L3.07221 26.2397C3.07198 26.2397 3.07122 26.2398 2.91662 25.0835C1.76024 24.9289 1.76027 24.9286 1.7603 24.9284L1.7611 24.9225L1.76285 24.9098L1.76908 24.8662C1.77445 24.8292 1.78232 24.7767 1.79283 24.7104C1.81382 24.578 1.84545 24.3901 1.88892 24.1611C1.97557 23.7048 2.11079 23.0774 2.30536 22.3972C2.49886 21.7207 2.75791 20.9676 3.0988 20.2697C3.43302 19.5854 3.88427 18.8739 4.49885 18.3574ZM2.91662 25.0835L1.7603 24.9284C1.71213 25.2887 1.83461 25.6514 2.09166 25.9084C2.34871 26.1655 2.71189 26.2879 3.07221 26.2397L2.91662 25.0835ZM4.39881 23.6013C4.57969 23.5564 4.76839 23.5065 4.96119 23.4514C5.55929 23.2803 6.17262 23.0654 6.7063 22.8047C7.25334 22.5375 7.63818 22.2598 7.85663 21.9997L7.85894 21.997C8.32092 21.4504 8.28207 20.6441 7.8321 20.1921C7.58755 19.9621 7.26727 19.8293 6.93149 19.8189C6.59233 19.8084 6.26125 19.9236 6.00178 20.1422L6.00035 20.1434C5.74028 20.3619 5.46259 20.7467 5.19538 21.2938C4.93471 21.8275 4.7198 22.4408 4.54872 23.0389C4.49357 23.2317 4.44368 23.4204 4.39881 23.6013Z" fill="#FF725E"/>
</svg>
