<svg width="28" height="28" viewBox="0 0 28 28" fill="none" xmlns="http://www.w3.org/2000/svg">
<path fill-rule="evenodd" clip-rule="evenodd" d="M14.001 3.49984C13.0345 3.49984 12.251 4.28334 12.251 5.24984C12.251 6.21634 13.0345 6.99984 14.001 6.99984C14.9675 6.99984 15.751 6.21634 15.751 5.24984C15.751 4.28334 14.9675 3.49984 14.001 3.49984ZM10.0868 4.08317C10.5888 2.39647 12.1513 1.1665 14.001 1.1665C15.8508 1.1665 17.4133 2.39647 17.9153 4.08317L23.3344 4.08317C23.9787 4.08317 24.501 4.6055 24.501 5.24984C24.501 5.89417 23.9787 6.4165 23.3344 6.4165L17.9153 6.4165C17.5233 7.73354 16.4847 8.77211 15.1677 9.16407V23.3332H23.3344C23.9787 23.3332 24.501 23.8555 24.501 24.4998C24.501 25.1442 23.9787 25.6665 23.3344 25.6665L4.66771 25.6665C4.02337 25.6665 3.50104 25.1442 3.50104 24.4998C3.50104 23.8555 4.02337 23.3332 4.66771 23.3332H12.8344V9.16407C11.5173 8.77211 10.4788 7.73354 10.0868 6.41651L4.66771 6.41651C4.02338 6.41651 3.50104 5.89418 3.50104 5.24985C3.50104 4.60552 4.02337 4.08318 4.66771 4.08318L10.0868 4.08317ZM6.41771 8.1665C6.81313 8.1665 7.18165 8.3668 7.39672 8.69863L10.8796 14.0721C10.8868 14.0833 10.894 14.0944 10.9011 14.1054C11.0912 14.3983 11.2624 14.6623 11.4032 15.0787C11.4641 15.2589 11.5071 15.4831 11.533 15.6439C11.559 15.8048 11.5885 16.0311 11.5873 16.2214C11.5863 16.3867 11.5805 16.5345 11.5611 16.6793C11.5417 16.8244 11.5117 16.9387 11.4932 17.0096C11.4922 17.0133 11.4913 17.0169 11.4904 17.0204C10.8973 19.2912 8.86932 20.9998 6.41771 20.9998C3.96609 20.9998 1.93813 19.2912 1.34506 17.0204L1.34224 17.0096C1.32367 16.9387 1.29372 16.8244 1.2743 16.6793C1.25494 16.5345 1.24912 16.3867 1.24808 16.2214C1.24688 16.0311 1.27646 15.8048 1.30239 15.6439C1.32831 15.4831 1.37135 15.2589 1.43226 15.0787C1.57298 14.6623 1.74426 14.3983 1.93427 14.1054C1.94144 14.0944 1.94863 14.0833 1.95586 14.0721L5.43869 8.69863C5.65377 8.3668 6.02228 8.1665 6.41771 8.1665ZM3.58431 16.3332C3.58539 16.3544 3.58642 16.3647 3.58684 16.3683C3.58677 16.368 3.58689 16.3686 3.58684 16.3683C3.58884 16.3772 3.59207 16.3902 3.60267 16.4308C3.94455 17.7398 5.09375 18.6665 6.41771 18.6665C7.74167 18.6665 8.89086 17.7398 9.23275 16.4308C9.24335 16.3902 9.24638 16.3781 9.24838 16.3692C9.24833 16.3694 9.24846 16.3689 9.24838 16.3692C9.2488 16.3656 9.25003 16.3544 9.2511 16.3332H3.58431ZM8.05211 13.9998H4.78331L6.41771 11.4782L8.05211 13.9998ZM21.5844 8.1665C21.9798 8.1665 22.3483 8.3668 22.5634 8.69863L26.0462 14.0721C26.0534 14.0833 26.0606 14.0944 26.0678 14.1054C26.2578 14.3983 26.4291 14.6623 26.5698 15.0787C26.6307 15.2589 26.6738 15.4831 26.6997 15.6439C26.7256 15.8048 26.7552 16.0311 26.754 16.2214C26.753 16.3867 26.7471 16.5345 26.7278 16.6793C26.7084 16.8244 26.6784 16.9387 26.6598 17.0096L26.657 17.0204C26.064 19.2912 24.036 20.9998 21.5844 20.9998C19.1328 20.9998 17.1048 19.2912 16.5117 17.0204C16.5108 17.0169 16.5099 17.0133 16.5089 17.0096C16.4903 16.9387 16.4604 16.8244 16.441 16.6793C16.4216 16.5345 16.4158 16.3867 16.4148 16.2214C16.4136 16.0311 16.4431 15.8048 16.4691 15.6439C16.495 15.4831 16.538 15.2589 16.5989 15.0787C16.7396 14.6623 16.9109 14.3983 17.1009 14.1054C17.1081 14.0944 17.1153 14.0833 17.1225 14.0721L20.6054 8.69863C20.8204 8.3668 21.1889 8.1665 21.5844 8.1665ZM19.95 13.9998H23.2188L21.5844 11.4782L19.95 13.9998ZM24.4178 16.3332C24.4167 16.3544 24.4157 16.3647 24.4152 16.3683C24.4152 16.3686 24.4153 16.368 24.4152 16.3683C24.4132 16.3772 24.41 16.3902 24.3994 16.4308C24.0575 17.7398 22.9083 18.6665 21.5844 18.6665C20.2604 18.6665 19.1112 17.7398 18.7693 16.4308C18.7658 16.4173 18.7631 16.4069 18.761 16.3988C18.7568 16.3825 18.755 16.3751 18.7537 16.3692C18.7536 16.3689 18.7538 16.3694 18.7537 16.3692C18.7533 16.3656 18.7521 16.3544 18.751 16.3332H24.4178Z" fill="#FF725E"/>
</svg>
