<svg width="36" height="36" viewBox="0 0 36 36" fill="none" xmlns="http://www.w3.org/2000/svg">
<path fill-rule="evenodd" clip-rule="evenodd" d="M22.4284 5.40681C22.1677 5.49942 21.816 5.66013 21.2232 5.93373L11.3298 10.4999L22.5003 10.4999V6.75089C22.5003 6.09801 22.4989 5.7113 22.4737 5.43579C22.4723 5.42037 22.4708 5.40599 22.4694 5.39262C22.4567 5.39691 22.443 5.40163 22.4284 5.40681ZM25.5003 10.4999L25.5003 6.69001C25.5004 6.11871 25.5004 5.59197 25.4613 5.16303C25.4207 4.71851 25.3242 4.15773 24.9747 3.64797C24.5155 2.97809 23.8043 2.52303 23.0036 2.38679C22.3943 2.2831 21.8447 2.43048 21.4241 2.57991C21.0182 2.72411 20.54 2.94488 20.0213 3.18433L6.66028 9.35096C6.60133 9.37816 6.54284 9.40506 6.48484 9.43173C5.64963 9.81584 4.91542 10.1535 4.35508 10.7011C3.86447 11.1806 3.48998 11.7659 3.26023 12.4123C2.99782 13.1505 2.99892 13.9587 3.00017 14.878C3.00026 14.9418 3.00034 15.0062 3.00034 15.0711V16.6263C3.00034 16.6647 3.00034 16.7032 3.00034 16.7421L3.00034 26.7577C3.00032 27.5484 3.00029 28.2306 3.0462 28.7924C3.09465 29.3855 3.20162 29.9753 3.49081 30.5429C3.92224 31.3896 4.61066 32.078 5.45739 32.5094C6.02496 32.7986 6.61478 32.9056 7.2078 32.9541C7.76965 33 8.45179 32.9999 9.24249 32.9999H26.7582C27.5489 32.9999 28.231 33 28.7929 32.9541C29.3859 32.9056 29.9757 32.7986 30.5433 32.5094C31.39 32.078 32.0784 31.3896 32.5099 30.5429C32.7991 29.9753 32.906 29.3855 32.9545 28.7924C33.0004 28.2306 33.0004 27.5485 33.0003 26.7578V16.7421C33.0004 15.9514 33.0004 15.2692 32.9545 14.7074C32.906 14.1143 32.7991 13.5245 32.5099 12.957C32.0784 12.1102 31.39 11.4218 30.5433 10.9904C29.9757 10.7012 29.3859 10.5942 28.7929 10.5458C28.231 10.4999 27.5489 10.4999 26.7582 10.4999L25.5003 10.4999ZM9.30035 13.4999C8.43551 13.4999 7.8771 13.5011 7.4521 13.5358C7.0446 13.5691 6.89352 13.6256 6.81936 13.6634C6.53712 13.8072 6.30764 14.0367 6.16383 14.3189C6.12604 14.3931 6.06953 14.5442 6.03623 14.9517C6.00151 15.3767 6.00034 15.9351 6.00034 16.7999V22.4999C6.00034 22.4997 6.00034 22.5001 6.00034 22.4999L6.00034 26.6999C6.00034 27.5647 6.00151 28.1231 6.03623 28.5481C6.06953 28.9556 6.12604 29.1067 6.16383 29.1809C6.30764 29.4631 6.53712 29.6926 6.81936 29.8364C6.89352 29.8742 7.0446 29.9307 7.4521 29.964C7.8771 29.9987 8.43551 29.9999 9.30034 29.9999H26.7003C27.5652 29.9999 28.1236 29.9987 28.5486 29.964C28.9561 29.9307 29.1072 29.8742 29.1813 29.8364C29.4636 29.6926 29.693 29.4631 29.8369 29.1809C29.8746 29.1067 29.9312 28.9556 29.9645 28.5482C29.9992 28.1231 30.0003 27.5647 30.0003 26.6999V16.7999C30.0003 15.9351 29.9992 15.3767 29.9645 14.9517C29.9312 14.5442 29.8746 14.3931 29.8369 14.3189C29.693 14.0367 29.4636 13.8072 29.1813 13.6634C29.1072 13.6256 28.9561 13.5691 28.5486 13.5358C28.1236 13.5011 27.5652 13.4999 26.7003 13.4999L9.30035 13.4999ZM22.5003 21.7499C22.5003 20.5073 23.5077 19.4999 24.7503 19.4999C25.993 19.4999 27.0003 20.5073 27.0003 21.7499C27.0003 22.9925 25.993 23.9999 24.7503 23.9999C23.5077 23.9999 22.5003 22.9925 22.5003 21.7499Z" fill="#FF725E"/>
</svg>
