<svg width="32" height="32" viewBox="0 0 32 32" fill="none" xmlns="http://www.w3.org/2000/svg">
<rect width="32" height="32" rx="6" fill="#0B0B0B"/>
<path d="M25.9266 24.2351L16.3252 6.24773C16.2845 6.17233 16.2264 6.10979 16.1566 6.06633C16.0867 6.02287 16.0076 6 15.9271 6C15.8466 6 15.7675 6.02287 15.6977 6.06633C15.6278 6.10979 15.5697 6.17233 15.5291 6.24773L6.06247 24.1831C6.02182 24.2586 6.00027 24.3443 6 24.4317C5.99974 24.519 6.02078 24.6049 6.06097 24.6806C6.10116 24.7563 6.15909 24.8192 6.22888 24.8628C6.29867 24.9064 6.37783 24.9292 6.45836 24.9289L25.5264 24.9997C25.6099 25.003 25.6927 24.9814 25.7657 24.9372C25.8387 24.8931 25.8991 24.828 25.9404 24.7492C25.9817 24.6703 26.0022 24.5807 25.9998 24.49C25.9974 24.3994 25.9721 24.3112 25.9266 24.2351ZM21.7197 22.2858L10.2824 22.248C10.2032 22.2517 10.1246 22.2318 10.0551 22.1905C9.98551 22.1492 9.92769 22.0881 9.88783 22.0138C9.84797 21.9394 9.8276 21.8547 9.8289 21.7687C9.8302 21.6827 9.85313 21.5987 9.89521 21.5259L15.5769 10.7788C15.6142 10.7038 15.6694 10.6413 15.7368 10.5976C15.8042 10.554 15.8813 10.531 15.9597 10.531C16.0382 10.531 16.1152 10.554 16.1826 10.5976C16.25 10.6413 16.3053 10.7038 16.3426 10.7788L22.1026 21.5683C22.1389 21.6403 22.1573 21.7213 22.1559 21.8033C22.1546 21.8854 22.1335 21.9656 22.0949 22.0361C22.0562 22.1066 22.0013 22.165 21.9355 22.2055C21.8697 22.2459 21.7954 22.2671 21.7197 22.2669V22.2858Z" fill="#FF725E"/>
</svg>
