<svg width="116" height="34" viewBox="0 0 116 34" fill="none" xmlns="http://www.w3.org/2000/svg">
<path d="M35.8679 31.8082L18.5853 1.31451C18.5122 1.18669 18.4075 1.08066 18.2818 1.00698C18.1561 0.933301 18.0137 0.894531 17.8688 0.894531C17.7239 0.894531 17.5815 0.933301 17.4558 1.00698C17.3301 1.08066 17.2255 1.18669 17.1523 1.31451L0.112443 31.7202C0.0392749 31.8481 0.000480272 31.9934 4.42968e-06 32.1416C-0.000471413 32.2897 0.0373975 32.4353 0.109743 32.5636C0.182088 32.692 0.286358 32.7985 0.411978 32.8724C0.537597 32.9463 0.680096 32.985 0.82505 32.9845L35.1475 33.1045C35.2978 33.1101 35.4469 33.0735 35.5783 32.9987C35.7097 32.9238 35.8184 32.8135 35.8927 32.6798C35.967 32.5461 36.004 32.3942 35.9996 32.2405C35.9953 32.0868 35.9497 31.9373 35.8679 31.8082ZM28.2955 28.5036L7.70834 28.4396C7.56578 28.4458 7.42426 28.4121 7.29909 28.3421C7.17392 28.2721 7.06984 28.1685 6.9981 28.0425C6.92635 27.9165 6.88968 27.7728 6.89202 27.6271C6.89436 27.4813 6.93563 27.3389 7.01139 27.2154L17.2384 8.99594C17.3055 8.86891 17.405 8.7628 17.5263 8.68885C17.6476 8.61489 17.7863 8.57584 17.9275 8.57584C18.0688 8.57584 18.2074 8.61489 18.3288 8.68885C18.4501 8.7628 18.5496 8.86891 18.6167 8.99594L28.9846 27.2874C29.05 27.4094 29.0831 27.5467 29.0806 27.6858C29.0782 27.8249 29.0403 27.9608 28.9708 28.0804C28.9012 28.1999 28.8023 28.2989 28.6839 28.3675C28.5655 28.4361 28.4316 28.472 28.2955 28.4716V28.5036Z" fill="#FF725E"/>
<path d="M46.2842 12.4082L42.4609 23.5H40.1494L44.9658 10.7031H46.4424L46.2842 12.4082ZM49.4834 23.5L45.6514 12.4082L45.4844 10.7031H46.9697L51.8037 23.5H49.4834ZM49.2988 18.7539V20.5029H42.3379V18.7539H49.2988ZM57.6484 19.4307H54.6074L54.5898 17.9365H57.0859C57.4961 17.9365 57.833 17.8955 58.0967 17.8135C58.3662 17.7314 58.5654 17.6084 58.6943 17.4443C58.8232 17.2744 58.8877 17.0693 58.8877 16.8291C58.8877 16.6299 58.8496 16.457 58.7734 16.3105C58.6973 16.1582 58.5801 16.0352 58.4219 15.9414C58.2695 15.8418 58.0762 15.7715 57.8418 15.7305C57.6133 15.6836 57.3467 15.6602 57.042 15.6602H55.3105V23.5H53.1924V13.9902H57.042C57.6514 13.9902 58.1992 14.043 58.6855 14.1484C59.1777 14.2539 59.5967 14.415 59.9424 14.6318C60.2881 14.8486 60.5518 15.124 60.7334 15.458C60.9209 15.7861 61.0146 16.1729 61.0146 16.6182C61.0146 16.9111 60.9502 17.1865 60.8213 17.4443C60.6982 17.7021 60.5137 17.9307 60.2676 18.1299C60.0215 18.3291 59.7197 18.4932 59.3623 18.6221C59.0049 18.7451 58.5947 18.8213 58.1318 18.8506L57.6484 19.4307ZM57.6484 23.5H53.9922L54.8359 21.8301H57.6484C58.0234 21.8301 58.334 21.7832 58.5801 21.6895C58.8262 21.5957 59.0078 21.4609 59.125 21.2852C59.248 21.1035 59.3096 20.8896 59.3096 20.6436C59.3096 20.3916 59.251 20.1748 59.1338 19.9932C59.0166 19.8115 58.835 19.6738 58.5889 19.5801C58.3486 19.4805 58.0352 19.4307 57.6484 19.4307H55.2314L55.249 17.9365H58.123L58.7295 18.5166C59.333 18.5576 59.834 18.6865 60.2324 18.9033C60.6309 19.1201 60.9297 19.3926 61.1289 19.7207C61.3281 20.0488 61.4277 20.4062 61.4277 20.793C61.4277 21.2383 61.3428 21.6309 61.1729 21.9707C61.0088 22.3105 60.7627 22.5947 60.4346 22.8232C60.1123 23.0459 59.7168 23.2158 59.248 23.333C58.7793 23.4443 58.2461 23.5 57.6484 23.5ZM68.6172 21.5928V17.0576C68.6172 16.7178 68.5557 16.4248 68.4326 16.1787C68.3096 15.9326 68.1221 15.7422 67.8701 15.6074C67.624 15.4727 67.3135 15.4053 66.9385 15.4053C66.5928 15.4053 66.2939 15.4639 66.042 15.5811C65.79 15.6982 65.5938 15.8564 65.4531 16.0557C65.3125 16.2549 65.2422 16.4805 65.2422 16.7324H63.1328C63.1328 16.3574 63.2236 15.9941 63.4053 15.6426C63.5869 15.291 63.8506 14.9775 64.1963 14.7021C64.542 14.4268 64.9551 14.21 65.4355 14.0518C65.916 13.8936 66.4551 13.8145 67.0527 13.8145C67.7676 13.8145 68.4004 13.9346 68.9512 14.1748C69.5078 14.415 69.9443 14.7783 70.2607 15.2646C70.583 15.7451 70.7441 16.3486 70.7441 17.0752V21.3027C70.7441 21.7363 70.7734 22.126 70.832 22.4717C70.8965 22.8115 70.9873 23.1074 71.1045 23.3594V23.5H68.9336C68.834 23.2715 68.7549 22.9814 68.6963 22.6299C68.6436 22.2725 68.6172 21.9268 68.6172 21.5928ZM68.9248 17.7168L68.9424 19.0264H67.4219C67.0293 19.0264 66.6836 19.0645 66.3848 19.1406C66.0859 19.2109 65.8369 19.3164 65.6377 19.457C65.4385 19.5977 65.2891 19.7676 65.1895 19.9668C65.0898 20.166 65.04 20.3916 65.04 20.6436C65.04 20.8955 65.0986 21.127 65.2158 21.3379C65.333 21.543 65.5029 21.7041 65.7256 21.8213C65.9541 21.9385 66.2295 21.9971 66.5518 21.9971C66.9854 21.9971 67.3633 21.9092 67.6855 21.7334C68.0137 21.5518 68.2715 21.332 68.459 21.0742C68.6465 20.8105 68.7461 20.5615 68.7578 20.3271L69.4434 21.2676C69.373 21.5078 69.2529 21.7656 69.083 22.041C68.9131 22.3164 68.6904 22.5801 68.415 22.832C68.1455 23.0781 67.8203 23.2803 67.4395 23.4385C67.0645 23.5967 66.6309 23.6758 66.1387 23.6758C65.5176 23.6758 64.9639 23.5527 64.4775 23.3066C63.9912 23.0547 63.6104 22.7178 63.335 22.2959C63.0596 21.8682 62.9219 21.3848 62.9219 20.8457C62.9219 20.3418 63.0156 19.8965 63.2031 19.5098C63.3965 19.1172 63.6777 18.7891 64.0469 18.5254C64.4219 18.2617 64.8789 18.0625 65.418 17.9277C65.957 17.7871 66.5723 17.7168 67.2637 17.7168H68.9248ZM75.0859 15.8184V27.1562H72.9678V13.9902H74.9189L75.0859 15.8184ZM81.2822 18.6572V18.8418C81.2822 19.5332 81.2002 20.1748 81.0361 20.7666C80.8779 21.3525 80.6406 21.8652 80.3242 22.3047C80.0137 22.7383 79.6299 23.0752 79.1729 23.3154C78.7158 23.5557 78.1885 23.6758 77.5908 23.6758C76.999 23.6758 76.4805 23.5674 76.0352 23.3506C75.5957 23.1279 75.2236 22.8145 74.9189 22.4102C74.6143 22.0059 74.3682 21.5312 74.1807 20.9863C73.999 20.4355 73.8701 19.832 73.7939 19.1758V18.4639C73.8701 17.7666 73.999 17.1338 74.1807 16.5654C74.3682 15.9971 74.6143 15.5078 74.9189 15.0977C75.2236 14.6875 75.5957 14.3711 76.0352 14.1484C76.4746 13.9258 76.9873 13.8145 77.5732 13.8145C78.1709 13.8145 78.7012 13.9316 79.1641 14.166C79.627 14.3945 80.0166 14.7227 80.333 15.1504C80.6494 15.5723 80.8867 16.082 81.0449 16.6797C81.2031 17.2715 81.2822 17.9307 81.2822 18.6572ZM79.1641 18.8418V18.6572C79.1641 18.2178 79.123 17.8105 79.041 17.4355C78.959 17.0547 78.8301 16.7207 78.6543 16.4336C78.4785 16.1465 78.2529 15.9238 77.9775 15.7656C77.708 15.6016 77.3828 15.5195 77.002 15.5195C76.627 15.5195 76.3047 15.584 76.0352 15.7129C75.7656 15.8359 75.54 16.0088 75.3584 16.2314C75.1768 16.4541 75.0361 16.7148 74.9365 17.0137C74.8369 17.3066 74.7666 17.626 74.7256 17.9717V19.6768C74.7959 20.0986 74.916 20.4854 75.0859 20.8369C75.2559 21.1885 75.4961 21.4697 75.8066 21.6807C76.123 21.8857 76.5273 21.9883 77.0195 21.9883C77.4004 21.9883 77.7256 21.9062 77.9951 21.7422C78.2646 21.5781 78.4844 21.3525 78.6543 21.0654C78.8301 20.7725 78.959 20.4355 79.041 20.0547C79.123 19.6738 79.1641 19.2695 79.1641 18.8418ZM85.3691 13.9902V23.5H83.251V13.9902H85.3691ZM91.5742 13.9902L87.2939 19.7119H84.877L84.5957 17.7959H86.3623L88.9287 13.9902H91.5742ZM89.0957 23.5L86.2305 19.3516L87.9004 18.1475L91.8818 23.5H89.0957ZM92.3125 18.8506V18.6484C92.3125 17.9629 92.4121 17.3271 92.6113 16.7412C92.8105 16.1494 93.0977 15.6367 93.4727 15.2031C93.8535 14.7637 94.3164 14.4238 94.8613 14.1836C95.4121 13.9375 96.0332 13.8145 96.7246 13.8145C97.4219 13.8145 98.043 13.9375 98.5879 14.1836C99.1387 14.4238 99.6045 14.7637 99.9854 15.2031C100.366 15.6367 100.656 16.1494 100.855 16.7412C101.055 17.3271 101.154 17.9629 101.154 18.6484V18.8506C101.154 19.5361 101.055 20.1719 100.855 20.7578C100.656 21.3438 100.366 21.8564 99.9854 22.2959C99.6045 22.7295 99.1416 23.0693 98.5967 23.3154C98.0518 23.5557 97.4336 23.6758 96.7422 23.6758C96.0449 23.6758 95.4209 23.5557 94.8701 23.3154C94.3252 23.0693 93.8623 22.7295 93.4814 22.2959C93.1006 21.8564 92.8105 21.3438 92.6113 20.7578C92.4121 20.1719 92.3125 19.5361 92.3125 18.8506ZM94.4307 18.6484V18.8506C94.4307 19.2783 94.4746 19.6826 94.5625 20.0635C94.6504 20.4443 94.7881 20.7783 94.9756 21.0654C95.1631 21.3525 95.4033 21.5781 95.6963 21.7422C95.9893 21.9062 96.3379 21.9883 96.7422 21.9883C97.1348 21.9883 97.4746 21.9062 97.7617 21.7422C98.0547 21.5781 98.2949 21.3525 98.4824 21.0654C98.6699 20.7783 98.8076 20.4443 98.8955 20.0635C98.9893 19.6826 99.0361 19.2783 99.0361 18.8506V18.6484C99.0361 18.2266 98.9893 17.8281 98.8955 17.4531C98.8076 17.0723 98.667 16.7354 98.4736 16.4424C98.2861 16.1494 98.0459 15.9209 97.7529 15.7568C97.4658 15.5869 97.123 15.502 96.7246 15.502C96.3262 15.502 95.9805 15.5869 95.6875 15.7568C95.4004 15.9209 95.1631 16.1494 94.9756 16.4424C94.7881 16.7354 94.6504 17.0723 94.5625 17.4531C94.4746 17.8281 94.4307 18.2266 94.4307 18.6484ZM108.581 20.9336L111.411 13.9902H113.248L109.302 23.5H107.86L103.923 13.9902H105.76L108.581 20.9336ZM105.215 13.9902V23.5H103.097V13.9902H105.215ZM111.947 23.5V13.9902H114.074V23.5H111.947Z" fill="white"/>
</svg>
